<svg width="87" height="50" viewBox="0 0 87 50" fill="none" xmlns="http://www.w3.org/2000/svg">
<path d="M61.1609 35.5088L58.8151 30.7045L56.5324 26.0306L55.5062 23.9297L53.2235 19.2559L46.1042 4.6757L43.9593 0.284786C43.7746 -0.0949287 43.2322 -0.0949287 43.0474 0.284786L41.2251 4.01596C41.0213 4.43233 41.0213 4.92053 41.2251 5.3369L43.5034 10.002L48.0219 19.2559L50.3045 23.9297L51.3308 26.0306L53.6135 30.7045L55.9856 35.5645C56.1806 35.9619 56.5838 36.2155 57.0265 36.2155H60.7196C61.0817 36.2155 61.3192 35.8358 61.1594 35.5103L61.1609 35.5088Z" fill="#34485C"/>
<path d="M51.2747 30.7041L49.4479 26.9627C49.1694 26.3924 48.5903 26.0303 47.9555 26.0303H31.5119C30.8771 26.0303 30.298 26.3924 30.0194 26.9627L28.1927 30.7041L25.847 35.5085C25.6886 35.834 25.9247 36.2137 26.2868 36.2137H29.9799C30.4226 36.2137 30.8273 35.9615 31.0208 35.5627L33.151 31.2011C33.2991 30.8962 33.6084 30.7041 33.9471 30.7041H45.5203C45.859 30.7041 46.1683 30.8977 46.3164 31.2011L48.4466 35.5627C48.6416 35.96 49.0448 36.2137 49.4875 36.2137H53.1791C53.5412 36.2137 53.7787 35.834 53.6189 35.5085L51.2732 30.7041H51.2747Z" fill="#34485C"/>
<path d="M32.5029 23.9301H46.9673C47.4291 23.9301 47.7311 23.4462 47.5288 23.0313L47.0377 22.0256L46.1287 20.1622C45.8575 19.6081 45.296 19.2562 44.6787 19.2562H39.7131C39.3774 19.2562 39.1589 18.9043 39.3055 18.6038L41.9914 13.1045C42.2099 12.6574 42.2099 12.1354 41.9914 11.6883L40.1925 8.00549C40.0063 7.62577 39.4653 7.62577 39.2806 8.00549L33.7858 19.2562L31.9429 23.0299C31.7406 23.4448 32.0426 23.9286 32.5044 23.9286L32.5029 23.9301Z" fill="#34485C"/>
<path d="M4.91577 41.3638H6.0901C6.18979 41.3638 6.28802 41.3652 6.38331 41.3696C6.47861 41.374 6.55778 41.3946 6.61935 41.4327C6.64281 41.4488 6.6604 41.4737 6.67067 41.5075C6.68239 41.5426 6.69119 41.5793 6.69999 41.6174V41.6746C6.70732 41.7054 6.71172 41.7406 6.71172 41.7787V42.3431C6.71172 42.3974 6.71318 42.4487 6.71758 42.4985C6.72198 42.5484 6.71611 42.5967 6.69999 42.6422C6.66187 42.7727 6.58563 42.8416 6.46981 42.8489C6.35546 42.8562 6.21618 42.8606 6.05491 42.8606H4.88058C4.72664 42.8606 4.5947 42.8665 4.48327 42.8782C4.37185 42.89 4.29708 42.9603 4.25896 43.0908C4.25163 43.1289 4.25163 43.1641 4.25896 43.1949C4.26629 43.2257 4.26336 43.2594 4.24724 43.299C4.2399 43.3459 4.23697 43.3972 4.24137 43.4544C4.2443 43.5116 4.24724 43.5644 4.24724 43.6098V49.0299C4.24724 49.1531 4.24137 49.2586 4.22964 49.3466C4.21791 49.4345 4.16953 49.4976 4.08597 49.5357C4.03172 49.5518 3.97015 49.5592 3.90124 49.5592H2.92336C2.83833 49.5592 2.76063 49.5548 2.68733 49.5474C2.61402 49.5401 2.55831 49.5122 2.52019 49.4668C2.48207 49.4052 2.46302 49.3275 2.46302 49.2308V43.6083C2.46302 43.5541 2.46448 43.4999 2.46888 43.4412C2.47181 43.384 2.46595 43.3327 2.45129 43.2858C2.44396 43.2477 2.44396 43.2125 2.45129 43.1817C2.45862 43.1509 2.45422 43.1201 2.43956 43.0894C2.40144 42.9589 2.32227 42.8885 2.20352 42.8768C2.08477 42.865 1.94402 42.8592 1.78275 42.8592H0.712515C0.627482 42.8592 0.533653 42.8606 0.431028 42.865C0.326936 42.8694 0.244835 42.8636 0.18326 42.8475C0.121685 42.824 0.0762362 42.7903 0.0454485 42.7434C0.0219912 42.7052 0.00879648 42.6554 0.00586432 42.5938C0.00146608 42.5322 0 42.4707 0 42.4091V41.8447C0 41.745 0.00586432 41.657 0.017593 41.5793C0.0293216 41.5031 0.0659736 41.4459 0.126083 41.4063C0.14954 41.3902 0.19059 41.3755 0.252166 41.3594H4.91284L4.91577 41.3638Z" fill="#CDB083"/>
<path d="M7.98708 41.3637H8.90778C9.03826 41.3637 9.15115 41.3695 9.24791 41.3812C9.34321 41.393 9.41065 41.4516 9.44876 41.5601C9.46489 41.5982 9.47222 41.6393 9.47222 41.6803V43.5965C9.47222 43.727 9.46782 43.8751 9.46049 44.0393C9.45316 44.2049 9.47955 44.3295 9.54113 44.4131C9.57925 44.46 9.62323 44.4849 9.67307 44.4879C9.72292 44.4923 9.77863 44.5011 9.84021 44.5172H12.0496C12.1874 44.5172 12.3296 44.5157 12.4748 44.5113C12.6199 44.5069 12.7196 44.46 12.7738 44.3677C12.812 44.2987 12.8281 44.1947 12.8193 44.0568C12.8105 43.919 12.8076 43.7959 12.8076 43.6889V42.1935C12.8076 42.0776 12.8046 41.9442 12.8017 41.7903C12.7973 41.6363 12.8222 41.5293 12.8765 41.4677C12.8999 41.4296 12.9468 41.4032 13.0201 41.3871C13.0934 41.371 13.1755 41.3622 13.2679 41.3578C13.3603 41.3534 13.4526 41.3534 13.5435 41.3578C13.6359 41.3622 13.7165 41.3637 13.7854 41.3637C13.9159 41.3637 14.0523 41.3622 14.1945 41.3578C14.3367 41.3534 14.4422 41.3827 14.5111 41.4443C14.5654 41.4824 14.5918 41.5454 14.5918 41.6349V49.2702C14.5918 49.3699 14.5654 49.4388 14.5111 49.4769C14.4422 49.5385 14.3323 49.5678 14.1827 49.5634C14.0332 49.559 13.8925 49.5576 13.762 49.5576C13.6931 49.5576 13.6139 49.559 13.5259 49.5634C13.438 49.5678 13.3485 49.5678 13.2606 49.5634C13.1726 49.559 13.092 49.5517 13.0187 49.54C12.9454 49.5283 12.8985 49.5033 12.875 49.4652C12.8515 49.4344 12.8339 49.3831 12.8237 49.3098C12.812 49.2365 12.8046 49.1603 12.8002 49.0796C12.7958 48.999 12.7958 48.9184 12.8002 48.8377C12.8032 48.7571 12.8061 48.6867 12.8061 48.6252V46.6225C12.8061 46.5917 12.8076 46.5609 12.812 46.5301C12.8149 46.4993 12.8134 46.4685 12.8061 46.4378V46.3234C12.7988 46.2999 12.7944 46.2765 12.7944 46.2545C12.7944 46.2325 12.79 46.2076 12.7826 46.1856C12.7284 46.0786 12.6287 46.0243 12.4836 46.0243H9.7669C9.70533 46.0405 9.65548 46.0536 9.61736 46.0639C9.57925 46.0756 9.54406 46.105 9.51327 46.1504C9.49714 46.1885 9.48248 46.2457 9.46782 46.3234V46.4378C9.46049 46.4759 9.45756 46.5199 9.46196 46.5697C9.46636 46.6196 9.46782 46.6635 9.46782 46.7017V49.1647C9.46782 49.2952 9.44437 49.3948 9.39892 49.4638C9.37546 49.5019 9.32708 49.5268 9.25524 49.5385C9.18194 49.5502 9.1013 49.5576 9.01334 49.562C8.92537 49.5664 8.83448 49.5664 8.74358 49.562C8.65122 49.5576 8.57058 49.5561 8.50168 49.5561C8.39465 49.5561 8.26417 49.5576 8.11023 49.562C7.95629 49.5664 7.84927 49.5444 7.78769 49.4989C7.72612 49.452 7.69093 49.3802 7.6836 49.2805C7.67627 49.1808 7.67188 49.0767 7.67188 48.9697V41.7082C7.67188 41.6158 7.688 41.5425 7.71732 41.4897C7.74811 41.4355 7.80236 41.3974 7.87859 41.3739C7.89472 41.3739 7.91085 41.3725 7.9299 41.3681C7.94896 41.3637 7.96656 41.3622 7.98122 41.3622L7.98708 41.3637Z" fill="#CDB083"/>
<path d="M16.5047 41.3643H21.8104C21.9028 41.3643 21.9907 41.3687 22.0758 41.376C22.1593 41.3833 22.2209 41.4141 22.259 41.4683C22.2752 41.4918 22.2839 41.5182 22.2883 41.549C22.2927 41.5798 22.3015 41.6106 22.3177 41.6413V41.7674C22.325 41.8217 22.3265 41.8789 22.3235 41.9404C22.3191 42.002 22.3177 42.0592 22.3177 42.1134C22.3177 42.175 22.3191 42.2336 22.3235 42.2923C22.3279 42.3495 22.325 42.4052 22.3177 42.4594C22.3103 42.4975 22.3059 42.5547 22.3059 42.6324C22.2825 42.7248 22.2444 42.7864 22.1901 42.8171C22.1447 42.8479 22.086 42.8641 22.0171 42.8641H18.9208C18.8592 42.8641 18.7888 42.8626 18.7082 42.8582C18.6275 42.8538 18.5469 42.8538 18.4663 42.8582C18.3856 42.8626 18.3109 42.8699 18.242 42.8816C18.1731 42.8934 18.1232 42.911 18.0924 42.933C18.0382 42.9711 18.0059 43.0268 17.9942 43.1001C17.9825 43.1734 17.9766 43.2555 17.9766 43.3479V44.3375C17.9927 44.399 18.0074 44.4504 18.0235 44.4929C18.0382 44.5354 18.066 44.5676 18.1042 44.5911C18.1496 44.6219 18.2038 44.6395 18.2654 44.6424C18.327 44.6468 18.3915 44.6483 18.4604 44.6483H21.0612C21.1155 44.6483 21.1829 44.6468 21.2621 44.6424C21.3427 44.638 21.4204 44.638 21.4981 44.6424C21.5744 44.6468 21.6462 44.6527 21.7107 44.66C21.7752 44.6673 21.8236 44.6835 21.8544 44.7069C21.8925 44.7304 21.9189 44.7758 21.935 44.8447C21.9511 44.9136 21.9599 44.9884 21.9643 45.069C21.9687 45.1497 21.9687 45.2318 21.9643 45.3168C21.9599 45.4018 21.9585 45.4737 21.9585 45.5353V45.6965C21.9585 45.7508 21.9511 45.7962 21.935 45.8343C21.9189 45.8959 21.8896 45.9458 21.8427 45.9839C21.8045 46.0073 21.7518 46.022 21.6873 46.0308C21.6227 46.0396 21.5494 46.0425 21.4688 46.0425C21.3882 46.0425 21.3075 46.0411 21.2269 46.0367C21.1463 46.0337 21.0788 46.0308 21.0261 46.0308H18.7815C18.6891 46.0308 18.6012 46.0293 18.5161 46.0249C18.4311 46.0205 18.3534 46.0249 18.2801 46.0367C18.2068 46.0484 18.1452 46.0718 18.0968 46.1056C18.047 46.1393 18.0103 46.1921 17.9869 46.261C17.9795 46.2991 17.9751 46.3401 17.9751 46.3812V47.5834C17.9751 47.6757 17.981 47.7578 17.9927 47.8311C18.0045 47.9044 18.0367 47.9602 18.091 47.9983C18.1144 48.0217 18.1423 48.0349 18.1775 48.0393C18.2112 48.0437 18.2478 48.0525 18.2859 48.0686H18.4018C18.4399 48.076 18.4824 48.0789 18.5279 48.0745C18.5748 48.0716 18.6158 48.0686 18.6539 48.0686H22.089C22.1461 48.0686 22.1989 48.0804 22.2444 48.1038C22.3059 48.1273 22.3485 48.1683 22.3704 48.2299C22.3851 48.268 22.3954 48.3149 22.3998 48.3677C22.4042 48.4205 22.4056 48.4791 22.4056 48.5407V49.07C22.4056 49.1623 22.4012 49.2488 22.3939 49.3295C22.3866 49.4101 22.3514 49.4687 22.2898 49.5083C22.2429 49.5465 22.1843 49.5655 22.111 49.5655H16.6967C16.5897 49.5655 16.4959 49.5596 16.4152 49.5479C16.3346 49.5362 16.276 49.4995 16.2364 49.438C16.2056 49.3925 16.1895 49.3324 16.1895 49.2591V41.6575C16.1895 41.5886 16.2056 41.5343 16.2364 41.4962C16.2672 41.442 16.3243 41.4038 16.4094 41.3804C16.4255 41.3731 16.4402 41.3701 16.4563 41.3745C16.4724 41.3789 16.4871 41.376 16.5017 41.3687L16.5047 41.3643Z" fill="#CDB083"/>
<path d="M33.8002 49.0169C33.8075 49.0477 33.8207 49.0858 33.8412 49.1312C33.8603 49.1782 33.8749 49.2251 33.8867 49.2749C33.8984 49.3248 33.8998 49.3731 33.8925 49.4186C33.8852 49.464 33.8588 49.4992 33.8119 49.5227C33.7503 49.5608 33.6491 49.5769 33.5069 49.5696C33.3647 49.5623 33.2474 49.5579 33.1565 49.5579H32.6156C32.554 49.5579 32.4983 49.5593 32.4484 49.5637C32.3986 49.5681 32.3502 49.5623 32.3047 49.5461C32.2197 49.5227 32.1581 49.4772 32.12 49.4083C32.0819 49.3468 32.0526 49.2822 32.0335 49.2119C32.0145 49.143 31.9895 49.0741 31.9588 49.0052C31.9206 48.882 31.8796 48.7603 31.8385 48.6372C31.796 48.514 31.752 48.3953 31.7066 48.2809C31.6831 48.212 31.6626 48.149 31.6435 48.0903C31.6245 48.0331 31.6025 47.9804 31.5805 47.9349C31.557 47.8895 31.5233 47.8484 31.4764 47.8132C31.431 47.7795 31.3694 47.7546 31.2917 47.7385C31.2536 47.7385 31.2169 47.737 31.1832 47.7326C31.148 47.7297 31.1114 47.7267 31.0732 47.7267H29.2553C29.1248 47.7267 28.9855 47.7253 28.836 47.7209C28.6865 47.7165 28.5692 47.7458 28.4856 47.8074C28.424 47.8528 28.3815 47.9144 28.3595 47.9906C28.3361 48.0669 28.3097 48.1446 28.2789 48.2208C28.2173 48.3513 28.166 48.4876 28.1235 48.6298C28.081 48.7721 28.0326 48.9113 27.9798 49.0506C27.949 49.1268 27.9197 49.2075 27.8933 49.2925C27.8669 49.3775 27.8229 49.442 27.7614 49.489C27.7232 49.5198 27.6675 49.5403 27.5942 49.552C27.5209 49.5637 27.4403 49.5696 27.3523 49.5696C27.2644 49.5696 27.1735 49.5681 27.0811 49.5637C26.9887 49.5593 26.9081 49.5579 26.8392 49.5579C26.7395 49.5579 26.6193 49.5593 26.4771 49.5637C26.3349 49.5681 26.2337 49.5505 26.1721 49.5124C26.134 49.489 26.112 49.4552 26.1091 49.4083C26.1047 49.3614 26.1091 49.3145 26.1208 49.2647C26.1326 49.2148 26.1457 49.1664 26.1619 49.121C26.1765 49.0755 26.1927 49.0374 26.2073 49.0066C26.2836 48.8307 26.3554 48.6504 26.4199 48.4656C26.4844 48.2824 26.5519 48.1021 26.6208 47.9247C26.6515 47.8631 26.675 47.8015 26.6897 47.7399C26.7058 47.6784 26.7278 47.6168 26.7586 47.5567C26.8201 47.3954 26.8817 47.2312 26.9433 47.0611C27.0049 46.8925 27.0664 46.7269 27.128 46.5656C27.1896 46.4117 27.2468 46.2607 27.301 46.1111C27.3553 45.9616 27.4124 45.8106 27.474 45.6566C27.6499 45.2344 27.8127 44.8092 27.9622 44.3797C28.1118 43.9501 28.2745 43.5249 28.4519 43.1027C28.468 43.0646 28.4783 43.0294 28.4871 42.9986C28.4944 42.9678 28.5061 42.9341 28.5223 42.8945C28.5838 42.7333 28.6454 42.5691 28.7055 42.399C28.7671 42.2304 28.8316 42.0647 28.902 41.9035C28.9401 41.8199 28.9724 41.7334 29.0002 41.6454C29.0266 41.5575 29.075 41.4856 29.1439 41.4329C29.182 41.4094 29.2318 41.3903 29.2934 41.3757C29.3095 41.3683 29.3242 41.3654 29.3389 41.3698C29.3535 41.3742 29.3697 41.3713 29.3858 41.3639H30.3988C30.4839 41.3639 30.5689 41.3625 30.6583 41.3581C30.7463 41.3537 30.8181 41.3713 30.8709 41.4094C30.9545 41.4548 31.0102 41.5223 31.0381 41.6102C31.0644 41.6982 31.0967 41.7891 31.1363 41.8815C31.1905 42.012 31.2404 42.141 31.2858 42.2671C31.3327 42.3931 31.3811 42.5221 31.4354 42.6526C31.45 42.6995 31.4662 42.745 31.4808 42.7904C31.4969 42.8374 31.5116 42.8828 31.5263 42.9283C31.5878 43.0822 31.645 43.2332 31.6993 43.3827C31.7535 43.5323 31.8107 43.6848 31.8723 43.8372C32.0262 44.2213 32.1699 44.6084 32.3033 44.9998C32.4382 45.3913 32.5848 45.7783 32.746 46.1624C32.7622 46.1932 32.771 46.2225 32.7754 46.2489C32.7798 46.2753 32.7886 46.3046 32.8047 46.3354C32.8501 46.4586 32.897 46.5803 32.9425 46.7034C32.9879 46.8266 33.0349 46.9497 33.0803 47.0714C33.1111 47.133 33.1346 47.1916 33.1492 47.2503C33.1653 47.3074 33.1844 47.3675 33.2064 47.4291C33.3061 47.6754 33.3984 47.9203 33.482 48.1651C33.567 48.4099 33.6579 48.6518 33.7576 48.8908C33.7723 48.9143 33.7811 48.9348 33.7811 48.9538C33.7811 48.9729 33.7884 48.9949 33.8046 49.0169H33.8002ZM30.8196 46.3823C30.9193 46.3442 30.9648 46.2782 30.9574 46.1874C30.9501 46.095 30.9266 46.007 30.8885 45.922C30.8724 45.8912 30.8651 45.8619 30.8651 45.8355C30.8651 45.8091 30.8577 45.7798 30.8416 45.749C30.7419 45.488 30.6495 45.2241 30.566 44.9544C30.4824 44.6846 30.3857 44.4178 30.2786 44.1495C30.2625 44.1114 30.2478 44.063 30.2317 44.0058C30.2156 43.9486 30.198 43.8944 30.1745 43.8446C30.1511 43.7947 30.1247 43.7507 30.0939 43.7126C30.0631 43.6745 30.025 43.6554 29.9795 43.6554C29.9634 43.6716 29.9488 43.6818 29.9326 43.6892C29.9165 43.6965 29.9018 43.7082 29.8872 43.7243C29.8256 43.8006 29.7816 43.8929 29.7552 44C29.7288 44.107 29.6951 44.2111 29.657 44.3108C29.5646 44.5248 29.4825 44.7447 29.4092 44.9661C29.3359 45.1889 29.2568 45.4103 29.1732 45.6332C29.1424 45.7109 29.116 45.7856 29.0926 45.8575C29.0691 45.9308 29.0471 46.0085 29.0237 46.0935C29.0002 46.1551 29.0046 46.224 29.0354 46.3002C29.0735 46.3545 29.1366 46.3853 29.226 46.3926C29.3139 46.3999 29.4048 46.4043 29.4957 46.4043H30.6012C30.6862 46.4043 30.758 46.397 30.8196 46.3809V46.3823Z" fill="#CDB083"/>
<path d="M34.872 41.3638H40.4886C40.6044 41.3638 40.7056 41.3696 40.7935 41.3814C40.8815 41.3931 40.9416 41.4415 40.9724 41.525C40.9959 41.5793 41.0076 41.6599 41.0076 41.767V42.0426C41.0076 42.0968 41.0105 42.1511 41.0193 42.2097C41.0266 42.2669 41.0223 42.3153 41.0076 42.3534V42.4912C41.0076 42.5909 40.9959 42.6789 40.9724 42.7566C40.9416 42.8328 40.902 42.8988 40.8522 42.9515C40.8023 43.0058 40.754 43.063 40.7085 43.1245C40.6469 43.2096 40.5824 43.2902 40.5135 43.3664C40.4446 43.4441 40.3786 43.5233 40.3171 43.6083C40.3009 43.6245 40.2848 43.6435 40.2658 43.6655C40.2467 43.689 40.2291 43.708 40.2144 43.7227C40.1602 43.7916 40.1059 43.8576 40.0532 43.9192C39.9989 43.9807 39.9447 44.0452 39.8919 44.1141C39.8758 44.1303 39.8626 44.1449 39.8523 44.1611C39.8421 44.1772 39.8274 44.1918 39.8113 44.2065C39.757 44.2754 39.7028 44.3429 39.6441 44.4074C39.587 44.4719 39.5312 44.5393 39.477 44.6082C39.2996 44.8311 39.1178 45.0495 38.9302 45.2635C38.7425 45.4776 38.5607 45.6975 38.3833 45.9189C38.3672 45.9423 38.3496 45.9643 38.3261 45.9878L38.269 46.045C38.1839 46.152 38.1004 46.2561 38.0153 46.3558C37.9303 46.4555 37.8467 46.5596 37.7617 46.6666C37.7382 46.6974 37.7133 46.7238 37.6869 46.7472C37.6605 46.7707 37.6385 46.7971 37.6239 46.8279C37.5388 46.9349 37.4494 47.0419 37.3526 47.1504C37.2574 47.2574 37.1665 47.3644 37.0814 47.4729C37.036 47.5345 36.9832 47.5917 36.926 47.6459C36.8688 47.7002 36.8322 47.7691 36.8161 47.8526C36.7999 47.9142 36.8087 47.9567 36.8395 47.9787C36.8703 48.0022 36.904 48.0212 36.9436 48.0359C36.9671 48.0359 37.0008 48.0432 37.0477 48.0594H37.1972C37.2207 48.0667 37.2486 48.0696 37.2837 48.0652C37.3175 48.0623 37.3512 48.0594 37.382 48.0594H40.6616C40.7378 48.0594 40.8067 48.0623 40.8683 48.0652C40.9299 48.0696 40.9797 48.0858 41.0179 48.1165C41.0633 48.1547 41.0926 48.2089 41.1044 48.2778C41.1161 48.3467 41.1219 48.423 41.1219 48.508V49.1296C41.1219 49.1985 41.1161 49.2674 41.1044 49.3363C41.0926 49.4052 41.0677 49.4551 41.0296 49.4859C40.9753 49.524 40.9064 49.546 40.8229 49.5489C40.7393 49.5518 40.6499 49.5548 40.5575 49.5548H34.7811C34.7034 49.5548 34.6243 49.5562 34.5392 49.5606C34.4542 49.565 34.3897 49.5474 34.3428 49.5093C34.2885 49.4785 34.2475 49.414 34.2167 49.3143C34.2006 49.2601 34.1976 49.2029 34.205 49.1413C34.2123 49.0798 34.2167 49.0182 34.2167 48.9566C34.2167 48.8261 34.2138 48.681 34.2108 48.5197C34.2064 48.3584 34.224 48.228 34.2622 48.1283C34.3003 48.0432 34.3487 47.9714 34.4058 47.9098C34.463 47.8483 34.5187 47.7867 34.573 47.7251C34.6492 47.6181 34.7284 47.5198 34.809 47.4319C34.8896 47.3439 34.9688 47.2457 35.045 47.1387C35.0685 47.1079 35.0934 47.0815 35.1198 47.058C35.1462 47.0346 35.1682 47.0111 35.1829 46.9891C35.2444 46.9129 35.3016 46.8411 35.3558 46.7765C35.4086 46.712 35.4673 46.6446 35.5288 46.5757C35.545 46.5596 35.5582 46.5434 35.5699 46.5244C35.5816 46.5053 35.5948 46.4877 35.6095 46.4731C35.7546 46.2883 35.9071 46.1109 36.064 45.9379C36.2208 45.7649 36.3689 45.5832 36.5067 45.3911C36.5536 45.3295 36.6006 45.2738 36.6504 45.224C36.7002 45.1741 36.7486 45.1184 36.7941 45.0568C36.8087 45.0334 36.8278 45.0128 36.8513 44.9938C36.8747 44.9747 36.8938 44.9542 36.9084 44.9308C36.97 44.8457 37.0389 44.7621 37.1151 44.6771C37.1914 44.5921 37.2603 44.5041 37.3219 44.4118C37.3527 44.3736 37.3834 44.3414 37.4142 44.3135C37.445 44.2871 37.4714 44.2578 37.4949 44.227C37.6019 44.0819 37.7148 43.9426 37.835 43.8121C37.9537 43.6816 38.0666 43.5438 38.1751 43.3972C38.2132 43.3591 38.2499 43.3181 38.2836 43.2755C38.3188 43.233 38.3467 43.1861 38.3701 43.1319C38.3862 43.1172 38.3994 43.0952 38.4112 43.0688C38.4229 43.0424 38.42 43.0131 38.4053 42.9823C38.3892 42.9208 38.3481 42.887 38.2792 42.8782C38.2103 42.8709 38.137 42.8636 38.0608 42.8548H35.4482C35.394 42.8548 35.3295 42.8562 35.2532 42.8606C35.177 42.865 35.1008 42.8665 35.0289 42.8665C34.9571 42.8665 34.8867 42.8636 34.8222 42.8548C34.7577 42.8474 34.7093 42.8313 34.6785 42.8079C34.6316 42.7771 34.6023 42.7228 34.5862 42.6466C34.57 42.5704 34.5612 42.4839 34.5568 42.3871C34.5524 42.2918 34.5524 42.1936 34.5568 42.0939C34.5612 41.9942 34.5627 41.9092 34.5627 41.8403C34.5627 41.7713 34.5642 41.7024 34.5686 41.6335C34.573 41.5646 34.5891 41.5075 34.6199 41.4605C34.6433 41.4136 34.6961 41.3843 34.7811 41.3682C34.7958 41.3608 34.8119 41.3579 34.8266 41.3623C34.8413 41.3667 34.8574 41.3638 34.872 41.3564V41.3638Z" fill="#CDB083"/>
<path d="M42.4912 41.3755H43.4808C43.5658 41.3755 43.6464 41.377 43.7227 41.3814C43.7989 41.3858 43.8576 41.4136 43.8957 41.4679C43.9338 41.5221 43.9558 41.591 43.9587 41.6746C43.9631 41.7596 43.9646 41.852 43.9646 41.9502V48.832C43.9646 48.9317 43.966 49.0431 43.9704 49.1662C43.9748 49.2894 43.9572 49.3803 43.9191 49.4419C43.8883 49.4961 43.8194 49.5386 43.7124 49.5679C43.6582 49.5826 43.601 49.587 43.5394 49.5797C43.4778 49.5723 43.4163 49.5679 43.3547 49.5679H42.6759C42.5909 49.5679 42.5132 49.5635 42.4398 49.5562C42.3665 49.5489 42.3079 49.5254 42.261 49.4873C42.2229 49.4492 42.1994 49.392 42.1921 49.3143C42.1848 49.2381 42.1804 49.1574 42.1804 49.0724V42.1906C42.1804 42.0836 42.1789 41.9561 42.1745 41.8109C42.1701 41.6658 42.1877 41.5617 42.2258 41.5001C42.2566 41.4547 42.3064 41.4165 42.3753 41.3858C42.3988 41.3858 42.4193 41.3843 42.4384 41.3799C42.4574 41.3755 42.475 41.374 42.4897 41.374L42.4912 41.3755Z" fill="#CDB083"/>
<path d="M45.7216 41.3638H51.3382C51.454 41.3638 51.5552 41.3696 51.6431 41.3814C51.7311 41.3931 51.7912 41.4415 51.822 41.525C51.8455 41.5793 51.8572 41.6599 51.8572 41.767V42.0426C51.8572 42.0968 51.8601 42.1511 51.8689 42.2097C51.8763 42.2669 51.8719 42.3153 51.8572 42.3534V42.4912C51.8572 42.5909 51.8455 42.6789 51.822 42.7566C51.7912 42.8328 51.7516 42.8988 51.7018 42.9515C51.6519 43.0058 51.6036 43.063 51.5581 43.1245C51.4965 43.2096 51.432 43.2902 51.3631 43.3664C51.2942 43.4441 51.2282 43.5233 51.1667 43.6083C51.1505 43.6245 51.1344 43.6435 51.1154 43.6655C51.0963 43.689 51.0787 43.708 51.064 43.7227C51.0098 43.7916 50.9556 43.8576 50.9028 43.9192C50.8485 43.9807 50.7943 44.0452 50.7415 44.1141C50.7254 44.1303 50.7122 44.1449 50.7019 44.1611C50.6917 44.1772 50.677 44.1918 50.6609 44.2065C50.6066 44.2754 50.5524 44.3429 50.4937 44.4074C50.4366 44.4719 50.3809 44.5393 50.3266 44.6082C50.1492 44.8311 49.9674 45.0495 49.7798 45.2635C49.5921 45.4776 49.4103 45.6975 49.2329 45.9189C49.2168 45.9423 49.1992 45.9643 49.1757 45.9878C49.1523 46.0113 49.1332 46.0303 49.1186 46.045C49.0335 46.152 48.95 46.2561 48.8649 46.3558C48.7799 46.4555 48.6963 46.5596 48.6113 46.6666C48.5878 46.6974 48.5629 46.7238 48.5365 46.7472C48.5101 46.7707 48.4881 46.7971 48.4735 46.8279C48.3885 46.9349 48.299 47.0419 48.2023 47.1504C48.107 47.2574 48.0161 47.3644 47.931 47.4729C47.8856 47.5345 47.8328 47.5917 47.7756 47.6459C47.7185 47.7002 47.6818 47.7691 47.6657 47.8526C47.6495 47.9142 47.6583 47.9567 47.6891 47.9787C47.7199 48.0022 47.7536 48.0212 47.7932 48.0359C47.8167 48.0359 47.8504 48.0432 47.8973 48.0594H48.0469C48.0703 48.0667 48.0982 48.0696 48.1334 48.0652C48.1671 48.0623 48.2008 48.0594 48.2316 48.0594H51.5112C51.5874 48.0594 51.6563 48.0623 51.7179 48.0652C51.7795 48.0696 51.8293 48.0858 51.8675 48.1165C51.9129 48.1547 51.9422 48.2089 51.954 48.2778C51.9657 48.3467 51.9715 48.423 51.9715 48.508V49.1296C51.9715 49.1985 51.9657 49.2674 51.954 49.3363C51.9422 49.4052 51.9173 49.4551 51.8792 49.4859C51.8249 49.524 51.756 49.546 51.6725 49.5489C51.5889 49.5518 51.4995 49.5548 51.4071 49.5548H45.6308C45.553 49.5548 45.4739 49.5562 45.3888 49.5606C45.3038 49.565 45.2393 49.5474 45.1924 49.5093C45.1382 49.4785 45.0971 49.414 45.0663 49.3143C45.0502 49.2601 45.0473 49.2029 45.0546 49.1413C45.0619 49.0798 45.0663 49.0182 45.0663 48.9566C45.0663 48.8261 45.0634 48.681 45.0604 48.5197C45.0561 48.3584 45.0736 48.228 45.1118 48.1283C45.1499 48.0432 45.1983 47.9714 45.2554 47.9098C45.3126 47.8483 45.3683 47.7867 45.4226 47.7251C45.4988 47.6181 45.578 47.5198 45.6586 47.4319C45.7392 47.3439 45.8184 47.2457 45.8946 47.1387C45.9181 47.1079 45.943 47.0815 45.9694 47.058C45.9958 47.0346 46.0178 47.0111 46.0325 46.9891C46.094 46.9129 46.1512 46.8411 46.2055 46.7765C46.2582 46.712 46.3169 46.6446 46.3785 46.5757C46.3946 46.5596 46.4078 46.5434 46.4195 46.5244C46.4312 46.5053 46.4444 46.4877 46.4591 46.4731C46.6042 46.2883 46.7567 46.1109 46.9136 45.9379C47.0704 45.7649 47.2185 45.5832 47.3563 45.3911C47.4032 45.3295 47.4502 45.2738 47.5 45.224C47.5499 45.1741 47.5982 45.1184 47.6437 45.0568C47.6583 45.0334 47.6774 45.0128 47.7009 44.9938C47.7243 44.9747 47.7434 44.9542 47.758 44.9308C47.8196 44.8457 47.8885 44.7621 47.9648 44.6771C48.041 44.5921 48.1099 44.5041 48.1715 44.4118C48.2023 44.3736 48.233 44.3414 48.2638 44.3135C48.2946 44.2871 48.321 44.2578 48.3445 44.227C48.4515 44.0819 48.5644 43.9426 48.6846 43.8121C48.8034 43.6816 48.9162 43.5438 49.0247 43.3972C49.0628 43.3591 49.0995 43.3181 49.1332 43.2755C49.1684 43.233 49.1963 43.1861 49.2197 43.1319C49.2358 43.1172 49.249 43.0952 49.2608 43.0688C49.2725 43.0424 49.2696 43.0131 49.2549 42.9823C49.2388 42.9208 49.1977 42.887 49.1288 42.8782C49.0599 42.8709 48.9866 42.8636 48.9104 42.8548H46.2978C46.2436 42.8548 46.1791 42.8562 46.1028 42.8606C46.0266 42.865 45.9504 42.8665 45.8785 42.8665C45.8067 42.8665 45.7363 42.8636 45.6718 42.8548C45.6073 42.8474 45.5589 42.8313 45.5281 42.8079C45.4812 42.7771 45.4519 42.7228 45.4358 42.6466C45.4196 42.5704 45.4108 42.4839 45.4064 42.3871C45.402 42.2918 45.402 42.1936 45.4064 42.0939C45.4108 41.9942 45.4123 41.9092 45.4123 41.8403C45.4123 41.7713 45.4138 41.7024 45.4182 41.6335C45.4226 41.5646 45.4387 41.5075 45.4695 41.4605C45.4929 41.4136 45.5457 41.3843 45.6308 41.3682C45.6454 41.3608 45.6615 41.3579 45.6762 41.3623C45.6909 41.3667 45.707 41.3638 45.7216 41.3564V41.3638Z" fill="#CDB083"/>
<path d="M53.3408 41.3755H54.3304C54.4154 41.3755 54.496 41.377 54.5723 41.3814C54.6485 41.3858 54.7072 41.4136 54.7453 41.4679C54.7834 41.5221 54.8054 41.591 54.8083 41.6746C54.8127 41.7596 54.8142 41.852 54.8142 41.9502V48.832C54.8142 48.9317 54.8156 49.0431 54.82 49.1662C54.8244 49.2894 54.8069 49.3803 54.7687 49.4419C54.7379 49.4961 54.669 49.5386 54.562 49.5679C54.5078 49.5826 54.4506 49.587 54.389 49.5797C54.3274 49.5723 54.2659 49.5679 54.2043 49.5679H53.5255C53.4405 49.5679 53.3628 49.5635 53.2895 49.5562C53.2162 49.5489 53.1575 49.5254 53.1106 49.4873C53.0725 49.4492 53.049 49.392 53.0417 49.3143C53.0344 49.2381 53.03 49.1574 53.03 49.0724V42.1906C53.03 42.0836 53.0285 41.9561 53.0241 41.8109C53.0197 41.6658 53.0373 41.5617 53.0754 41.5001C53.1062 41.4547 53.156 41.4165 53.225 41.3858C53.2484 41.3858 53.2689 41.3843 53.288 41.3799C53.3071 41.3755 53.3246 41.374 53.3393 41.374L53.3408 41.3755Z" fill="#CDB083"/>
<path d="M59.9462 41.375H64.906C64.991 41.375 65.0717 41.3794 65.1479 41.3867C65.2241 41.3941 65.2828 41.4204 65.3209 41.4674C65.3517 41.5055 65.3722 41.5583 65.3839 41.6228C65.3957 41.6873 65.4015 41.7606 65.4015 41.8412C65.4015 41.9218 65.4001 42.0025 65.3957 42.0831C65.3913 42.1637 65.3898 42.2385 65.3898 42.3074C65.3898 42.3617 65.3913 42.4159 65.3957 42.4687C65.4001 42.5229 65.3971 42.5728 65.3898 42.6182C65.3737 42.6564 65.3605 42.693 65.3502 42.7267C65.3385 42.7619 65.318 42.7898 65.2872 42.8132C65.2256 42.8601 65.12 42.8807 64.9705 42.8763C64.821 42.8733 64.6919 42.8704 64.5849 42.8704H62.3638C62.2407 42.8704 62.094 42.8689 61.9211 42.8645C61.7481 42.8601 61.6234 42.8821 61.5472 42.9276C61.5003 42.9584 61.4622 43.0155 61.4314 43.1006C61.4153 43.1548 61.4109 43.2237 61.4138 43.3073C61.4182 43.3923 61.4197 43.4642 61.4197 43.5257V44.0785C61.4197 44.1166 61.4182 44.1635 61.4138 44.2163C61.4094 44.2705 61.4123 44.316 61.4197 44.3541V44.4802C61.4358 44.5491 61.4519 44.6062 61.471 44.6532C61.49 44.7001 61.5296 44.7338 61.5912 44.7572C61.6293 44.7734 61.6762 44.7822 61.729 44.7866C61.7818 44.791 61.8404 44.7924 61.902 44.7924H63.9384C64 44.7924 64.0703 44.791 64.151 44.7866C64.2316 44.7822 64.3122 44.7822 64.3929 44.7866C64.4735 44.791 64.5468 44.7968 64.6113 44.8042C64.6758 44.8115 64.7242 44.8276 64.755 44.8496C64.8312 44.9039 64.8679 45.005 64.8649 45.1546C64.8605 45.3041 64.8591 45.4404 64.8591 45.5636C64.8591 45.6252 64.8605 45.6926 64.8649 45.7644C64.8679 45.8377 64.862 45.9037 64.8473 45.9653C64.8166 46.0503 64.774 46.1075 64.7213 46.1383C64.667 46.1691 64.5644 46.1823 64.4105 46.1793C64.2565 46.1749 64.1304 46.1735 64.0307 46.1735H62.1439C61.9988 46.1735 61.8565 46.1779 61.7187 46.1852C61.5809 46.1925 61.493 46.2468 61.4548 46.3465C61.4387 46.3699 61.4314 46.3949 61.4314 46.4213C61.4314 46.4476 61.427 46.4726 61.4197 46.496V48.7171C61.4197 48.8242 61.4211 48.9576 61.4255 49.1144C61.4299 49.2713 61.4123 49.3857 61.3742 49.4546C61.3507 49.4927 61.32 49.5176 61.2818 49.5293C61.2437 49.5411 61.2056 49.5543 61.166 49.5704C61.1118 49.585 61.0546 49.5894 60.993 49.5821C60.9314 49.5748 60.8699 49.5704 60.8098 49.5704H60.1427C60.0577 49.5704 59.98 49.5689 59.9067 49.5645C59.8334 49.5601 59.7747 49.5396 59.7278 49.5015C59.6736 49.4634 59.6457 49.4033 59.6413 49.3226C59.6369 49.242 59.6354 49.1599 59.6354 49.0749V42.1931C59.6354 42.086 59.634 41.9585 59.6296 41.8134C59.6252 41.6682 59.6428 41.5641 59.6809 41.5025C59.7117 41.4498 59.7688 41.4102 59.8539 41.3882C59.87 41.3809 59.8847 41.3779 59.9008 41.3823C59.9169 41.3867 59.9316 41.3838 59.9462 41.3765V41.375Z" fill="#CDB083"/>
<path d="M66.7607 41.3755H67.7503C67.8353 41.3755 67.916 41.377 67.9922 41.3814C68.0684 41.3858 68.1271 41.4136 68.1652 41.4679C68.2033 41.5221 68.2253 41.591 68.2282 41.6746C68.2326 41.7596 68.2341 41.852 68.2341 41.9502V48.832C68.2341 48.9317 68.2356 49.0431 68.24 49.1662C68.2444 49.2894 68.2268 49.3803 68.1887 49.4419C68.1579 49.4961 68.089 49.5386 67.9819 49.5679C67.9277 49.5826 67.8705 49.587 67.8089 49.5797C67.7474 49.5723 67.6858 49.5679 67.6242 49.5679H66.9454C66.8604 49.5679 66.7827 49.5635 66.7094 49.5562C66.6361 49.5489 66.5774 49.5254 66.5305 49.4873C66.4924 49.4492 66.4689 49.392 66.4616 49.3143C66.4543 49.2381 66.4499 49.1574 66.4499 49.0724V42.1906C66.4499 42.0836 66.4484 41.9561 66.444 41.8109C66.4396 41.6658 66.4572 41.5617 66.4953 41.5001C66.5261 41.4547 66.576 41.4165 66.6449 41.3858C66.6683 41.3858 66.6889 41.3843 66.7079 41.3799C66.727 41.3755 66.7446 41.374 66.7592 41.374L66.7607 41.3755Z" fill="#CDB083"/>
<path d="M76.7726 49.3036C76.7873 49.349 76.7858 49.3915 76.7667 49.4297C76.7477 49.4678 76.7257 49.4956 76.7037 49.5103C76.6568 49.5484 76.5938 49.566 76.5131 49.5616C76.4325 49.5572 76.3504 49.5557 76.2653 49.5557H75.632C75.5089 49.5557 75.4018 49.5499 75.3095 49.5381C75.2171 49.5264 75.1482 49.4824 75.1027 49.4062C75.0412 49.3065 75.0075 49.1834 74.9987 49.0382C74.9913 48.8931 74.9723 48.7538 74.9415 48.6233C74.9415 48.5925 74.94 48.5647 74.9356 48.5368C74.9312 48.5104 74.9297 48.4855 74.9297 48.462C74.9063 48.3697 74.896 48.2729 74.896 48.1688C74.896 48.0647 74.8887 47.9709 74.8726 47.8873C74.8652 47.8639 74.8608 47.8302 74.8608 47.7832C74.8447 47.6982 74.8315 47.6132 74.8213 47.5238C74.8095 47.4358 74.7919 47.3493 74.7699 47.2643C74.7084 47.0883 74.6351 46.93 74.5515 46.7922C74.4665 46.6544 74.3477 46.5503 74.1952 46.4814C74.1571 46.4652 74.1175 46.455 74.0794 46.4462C74.0413 46.4389 73.9988 46.4271 73.9533 46.4125C73.8155 46.3655 73.6557 46.3436 73.4754 46.3436H71.9961C71.9345 46.3597 71.8803 46.3699 71.8349 46.3773C71.7879 46.3846 71.7498 46.4081 71.719 46.4462C71.6575 46.5239 71.6311 46.6426 71.6384 46.8024C71.6457 46.9622 71.6501 47.1089 71.6501 47.2393V48.7127C71.6501 48.7743 71.6487 48.8374 71.6443 48.9033C71.6399 48.9678 71.6384 49.0324 71.6384 49.0939V49.2611C71.6384 49.3109 71.6311 49.3549 71.6149 49.393C71.5915 49.4619 71.546 49.5074 71.4771 49.5308C71.439 49.5469 71.3921 49.5543 71.3393 49.5543H70.6488C70.5256 49.5543 70.3952 49.5557 70.2574 49.5601C70.1195 49.5645 70.0154 49.5396 69.9465 49.4854C69.885 49.4473 69.8542 49.3754 69.8542 49.2728V41.9717C69.8542 41.8867 69.8527 41.7987 69.8483 41.7063C69.8439 41.614 69.8615 41.5407 69.8996 41.4879C69.9304 41.441 69.9876 41.4029 70.0726 41.3721C70.0888 41.3648 70.1049 41.3618 70.1239 41.3662C70.143 41.3706 70.1606 41.3677 70.1753 41.3604H74.0882C74.2114 41.3604 74.3287 41.3618 74.4386 41.3662C74.55 41.3706 74.6556 41.3838 74.7553 41.4073C74.7934 41.4234 74.833 41.4307 74.8755 41.4307C74.918 41.4307 74.9576 41.4381 74.9972 41.4542C75.0514 41.4703 75.1042 41.485 75.1585 41.4996C75.2127 41.5158 75.2655 41.5348 75.3197 41.5568C75.5118 41.6418 75.6877 41.7445 75.849 41.8676C76.0102 41.9908 76.1437 42.133 76.2522 42.2928C76.2829 42.3309 76.3079 42.3719 76.3269 42.413C76.346 42.4555 76.3709 42.4951 76.4017 42.5347C76.4633 42.6417 76.5087 42.7531 76.5395 42.8675C76.5703 42.9833 76.604 43.1094 76.6436 43.2472C76.6509 43.278 76.6539 43.3088 76.6495 43.3396C76.6451 43.3703 76.6509 43.4011 76.6671 43.4319V43.536C76.6832 43.5976 76.6861 43.6724 76.6788 43.7603C76.6715 43.8483 76.6597 43.9201 76.6436 43.9729C76.6275 44.0345 76.6201 44.0902 76.6201 44.14C76.6201 44.1899 76.6128 44.2412 76.5967 44.2954C76.5586 44.4098 76.5204 44.5198 76.4809 44.6238C76.4413 44.7279 76.3929 44.8247 76.3313 44.9171C76.3152 44.9405 76.2976 44.9654 76.2741 44.9918C76.2507 45.0182 76.2316 45.0431 76.217 45.0666C76.1935 45.0974 76.1686 45.1282 76.1422 45.159C76.1158 45.1898 76.0865 45.2161 76.0557 45.2396C76.0088 45.2777 75.9633 45.3158 75.9179 45.3554C75.8724 45.3935 75.8226 45.4317 75.7683 45.4698C75.7376 45.4932 75.7068 45.5182 75.676 45.5445C75.6452 45.5724 75.6217 45.6047 75.6071 45.6428C75.591 45.6897 75.5997 45.7278 75.6305 45.7586C75.6613 45.7894 75.6877 45.8128 75.7112 45.8275C75.7874 45.8891 75.8651 45.9507 75.9413 46.0122C76.0176 46.0738 76.0836 46.1471 76.1378 46.2307C76.2302 46.3612 76.302 46.496 76.3562 46.6338C76.4105 46.7717 76.4603 46.93 76.5058 47.1059C76.5219 47.1748 76.5307 47.2481 76.5351 47.3244C76.538 47.4021 76.5483 47.4739 76.5644 47.5428C76.5644 47.5883 76.5659 47.6337 76.5703 47.6748C76.5747 47.7173 76.5762 47.7613 76.5762 47.8067C76.5835 47.8375 76.5864 47.8698 76.582 47.9049C76.5776 47.9401 76.5806 47.9768 76.5879 48.0149C76.5952 48.0457 76.5981 48.0765 76.5938 48.1073C76.5894 48.138 76.5923 48.1718 76.5996 48.2113C76.6143 48.2876 76.6231 48.3682 76.6231 48.4532C76.6231 48.5383 76.6304 48.6189 76.6465 48.6952L76.6817 48.9019C76.6964 48.9708 76.7125 49.0397 76.7272 49.1086C76.7433 49.1775 76.7579 49.2435 76.7741 49.305L76.7726 49.3036ZM74.8726 44.1137C74.8887 44.0286 74.8902 43.926 74.8784 43.8028C74.8667 43.6797 74.8535 43.5888 74.8389 43.5272C74.8227 43.4964 74.8154 43.47 74.8154 43.4466C74.8154 43.4231 74.8081 43.4011 74.7919 43.3777C74.6996 43.1402 74.531 42.9672 74.2861 42.8602C74.1557 42.7986 74.0061 42.7649 73.8375 42.7561C73.6689 42.7487 73.4915 42.7443 73.3083 42.7443H71.9727C71.9565 42.7605 71.9419 42.7649 71.9272 42.7619C71.9111 42.7575 71.8964 42.7561 71.8803 42.7561C71.7879 42.7795 71.7264 42.8176 71.6956 42.8704C71.6575 42.932 71.6399 43.0112 71.6443 43.1065C71.6487 43.2017 71.6501 43.2956 71.6501 43.3879V44.7338C71.6501 44.8262 71.6692 44.8995 71.7073 44.9522C71.7381 44.9977 71.7879 45.0285 71.8568 45.0446C71.9258 45.0607 72.002 45.071 72.087 45.0783C72.1706 45.0857 72.26 45.0886 72.3509 45.0842C72.4433 45.0798 72.5239 45.0783 72.5928 45.0783H73.2716C73.3259 45.0783 73.383 45.0798 73.4446 45.0842C73.5062 45.0886 73.559 45.0827 73.6059 45.0666H73.7554C73.817 45.0519 73.8771 45.0431 73.9343 45.0431C73.9915 45.0431 74.0472 45.0358 74.1014 45.0197C74.2319 44.9816 74.3463 44.9317 74.4459 44.8701C74.5456 44.8086 74.6307 44.7279 74.6996 44.6282C74.7465 44.5593 74.7802 44.4831 74.8037 44.3981C74.8271 44.313 74.8491 44.2177 74.8726 44.1107V44.1137Z" fill="#CDB083"/>
<path d="M78.4988 41.3643H80.3798C80.5059 41.3643 80.6041 41.3906 80.673 41.4449C80.7273 41.483 80.7654 41.5387 80.7888 41.612C80.8123 41.6853 80.8343 41.7557 80.8577 41.8246C80.9032 41.9478 80.9486 42.0724 80.9897 42.1985C81.0322 42.3245 81.0762 42.4536 81.1216 42.584C81.2976 43.0678 81.4647 43.559 81.6216 44.0574C81.7784 44.5559 81.95 45.0515 82.1332 45.5426C82.1948 45.6965 82.249 45.8534 82.2945 46.0147C82.3414 46.1759 82.3942 46.3328 82.4558 46.4867C82.4719 46.5249 82.4865 46.563 82.5027 46.6011C82.5173 46.6392 82.5452 46.67 82.5833 46.6935C82.598 46.7008 82.6141 46.7096 82.6288 46.7169C82.6449 46.7242 82.6596 46.7213 82.6742 46.7052C82.7358 46.6905 82.7783 46.6436 82.8003 46.5674C82.8223 46.4911 82.8457 46.4222 82.8692 46.3607C82.9308 46.1847 82.9865 46.0103 83.0363 45.8373C83.0862 45.6643 83.1419 45.4898 83.2035 45.3139C83.3574 44.8462 83.5099 44.3756 83.6638 43.905C83.8178 43.4344 83.9702 42.9593 84.1242 42.4829C84.1623 42.3597 84.2004 42.2395 84.2385 42.1208C84.2766 42.002 84.3148 41.8803 84.3543 41.7586C84.3778 41.6971 84.3998 41.6355 84.4232 41.5754C84.4467 41.5153 84.4878 41.4639 84.5493 41.4258C84.5962 41.3877 84.6549 41.3687 84.7282 41.3687H86.7074C86.7807 41.3687 86.8364 41.3848 86.8745 41.4156C86.9581 41.461 87.0006 41.5475 87.0006 41.6736V49.067C87.0006 49.1521 86.9991 49.2342 86.9947 49.3148C86.9903 49.3954 86.9654 49.4541 86.92 49.4937C86.8745 49.5333 86.8159 49.5538 86.747 49.5567C86.6781 49.5596 86.6018 49.5626 86.5168 49.5626H85.6533C85.5917 49.5464 85.5404 49.5362 85.4979 49.5274C85.4554 49.5201 85.4187 49.4937 85.3879 49.4468C85.3571 49.4086 85.341 49.3588 85.341 49.2972V45.5572C85.3337 45.4502 85.3293 45.3476 85.3293 45.2523V44.9591C85.3293 44.8975 85.3307 44.8345 85.3351 44.7685C85.3381 44.704 85.3322 44.6395 85.3176 44.5779C85.3014 44.5251 85.2941 44.4665 85.2941 44.4049C85.2941 44.3433 85.2706 44.3052 85.2252 44.2891C85.2017 44.2818 85.1841 44.2847 85.1739 44.3008C85.1621 44.3169 85.1519 44.3272 85.1446 44.3345C85.1138 44.3653 85.0888 44.402 85.0698 44.4445C85.0507 44.487 85.0331 44.5266 85.0185 44.5662C84.973 44.6805 84.9276 44.8007 84.8865 44.9224C84.844 45.0456 84.8 45.1687 84.7546 45.2904C84.7385 45.3359 84.7253 45.3828 84.7135 45.4282C84.7018 45.4737 84.6842 45.5206 84.6622 45.566C84.6241 45.6657 84.5889 45.7654 84.5581 45.8651C84.5273 45.9648 84.4936 46.0645 84.454 46.1642C84.4379 46.1877 84.4306 46.2126 84.4306 46.239C84.4306 46.2654 84.4232 46.2903 84.4071 46.3137C84.3763 46.3826 84.3514 46.456 84.3323 46.5322C84.3133 46.6099 84.284 46.6861 84.2458 46.7624C84.2151 46.8313 84.1901 46.9046 84.1711 46.9808C84.152 47.057 84.1271 47.1347 84.0963 47.211C84.0039 47.4338 83.9233 47.6581 83.8544 47.8839C83.7855 48.1097 83.7078 48.334 83.6242 48.5568C83.6081 48.5803 83.6008 48.6038 83.6008 48.6258C83.6008 48.6477 83.5934 48.6727 83.5773 48.6947C83.5392 48.7797 83.5084 48.8647 83.485 48.9527C83.4615 49.0407 83.4307 49.1272 83.3926 49.2122C83.3691 49.2664 83.3486 49.3163 83.3295 49.3617C83.3105 49.4086 83.2812 49.4468 83.2431 49.4775C83.2049 49.5083 83.1668 49.5259 83.1287 49.5289C83.0906 49.5333 83.0437 49.5421 82.9909 49.5582H82.727C82.6727 49.5582 82.6097 49.5596 82.5364 49.564C82.4631 49.5684 82.3913 49.5699 82.3179 49.5699C82.2446 49.5699 82.1772 49.5655 82.1171 49.5582C82.0555 49.5508 82.0101 49.5347 81.9793 49.5113C81.9177 49.4731 81.8752 49.4292 81.8532 49.3793C81.8297 49.3295 81.8034 49.2694 81.7726 49.2005C81.7345 49.1081 81.7007 49.0143 81.6743 48.919C81.648 48.8237 81.6142 48.7284 81.5761 48.6375L81.5409 48.5334C81.5028 48.441 81.4676 48.3428 81.4368 48.2402C81.4061 48.1361 81.3709 48.0393 81.3327 47.947C81.3254 47.9235 81.3196 47.903 81.3152 47.8839C81.3108 47.8649 81.3049 47.8429 81.2976 47.8209C81.2594 47.752 81.2287 47.6787 81.2052 47.6024C81.1817 47.5262 81.1554 47.4485 81.1246 47.3723C81.1172 47.3561 81.1114 47.3371 81.107 47.3151C81.1026 47.2916 81.0967 47.2726 81.0894 47.2579C81.0586 47.1817 81.0337 47.104 81.0146 47.0277C80.9955 46.9515 80.9662 46.8738 80.9281 46.7976C80.8665 46.6436 80.8094 46.4823 80.7551 46.3137C80.7009 46.1451 80.6437 45.9795 80.5821 45.8182C80.5132 45.6261 80.4472 45.4312 80.3871 45.2318C80.3255 45.0324 80.2522 44.8403 80.1687 44.6556C80.1306 44.5486 80.088 44.4606 80.0426 44.3917C80.0265 44.3756 80.0118 44.3624 79.9957 44.3507C79.9796 44.3389 79.962 44.3419 79.9385 44.3565C79.9004 44.38 79.8813 44.4181 79.8813 44.4723C79.8813 44.5266 79.874 44.5794 79.8579 44.6336C79.8417 44.6879 79.8373 44.7421 79.8403 44.8007C79.8447 44.8579 79.8461 44.918 79.8461 44.9796V45.2332C79.8461 45.3183 79.8417 45.4018 79.8344 45.4869V49.2957C79.8344 49.3573 79.8183 49.4072 79.789 49.4453C79.7582 49.4995 79.701 49.5333 79.616 49.5494C79.5617 49.5655 79.5045 49.5699 79.443 49.567C79.3814 49.564 79.3198 49.5611 79.2597 49.5611H78.6616C78.5765 49.5611 78.5003 49.5596 78.4314 49.5552C78.3625 49.5508 78.3053 49.5303 78.2584 49.4922C78.2115 49.4541 78.1851 49.394 78.1777 49.3133C78.1704 49.2327 78.166 49.1506 78.166 49.0656V41.8041C78.166 41.7425 78.1704 41.6824 78.1777 41.6252C78.1851 41.568 78.1968 41.5241 78.2115 41.4933C78.2423 41.439 78.3038 41.4009 78.3962 41.3775C78.4123 41.3701 78.427 41.3672 78.4431 41.3716C78.4578 41.376 78.4739 41.3731 78.4885 41.3657L78.4988 41.3643Z" fill="#CDB083"/>
</svg>
